<?xml version="1.0" encoding="UTF-8"?>
<svg id="Capa_1" data-name="Capa 1" xmlns="http://www.w3.org/2000/svg" viewBox="0 0 112.56 188.43">
  <defs>
    <style>
      .cls-1 {
        fill: #5a2b11;
      }
    </style>
  </defs>
  <path class="cls-1" d="M.18,117.35h3.21v32.96c.6,0,1.54-.1,2.83-.29l7.84-1.21v2.47H.18v-33.93Z"/>
  <path class="cls-1" d="M15.4,139.18c0-1.74.31-3.35.92-4.85.62-1.5,1.48-2.81,2.59-3.92s2.41-1.98,3.9-2.6c1.49-.62,3.1-.93,4.83-.93s3.34.31,4.83.93c1.49.62,2.79,1.49,3.9,2.6,1.11,1.12,1.97,2.42,2.59,3.92.62,1.5.92,3.12.92,4.85s-.31,3.35-.92,4.85c-.62,1.5-1.48,2.81-2.59,3.92-1.11,1.12-2.41,1.98-3.9,2.6-1.49.62-3.1.93-4.83.93s-3.34-.31-4.83-.93c-1.49-.62-2.79-1.49-3.9-2.6-1.11-1.12-1.97-2.42-2.59-3.92-.62-1.5-.92-3.12-.92-4.85ZM17.96,139.18c0,2.3.4,4.31,1.21,6.03.81,1.72,1.94,3.07,3.4,4.02,1.46.96,3.15,1.44,5.08,1.44s3.62-.48,5.08-1.44c1.46-.96,2.59-2.3,3.4-4.04.81-1.74,1.21-3.74,1.21-6.02s-.4-4.28-1.21-6c-.81-1.72-1.94-3.07-3.4-4.04-1.46-.97-3.15-1.45-5.08-1.45s-3.62.48-5.06,1.44c-1.45.96-2.58,2.3-3.4,4.02-.82,1.72-1.23,3.74-1.23,6.03Z"/>
  <path class="cls-1" d="M74.45,118.07v33.22h-3.21v-30.46h-.28l-11.43,22.02h-1.46l-12.98-19.41h-.28l1.04,27.85h-3.21l1.18-33.88h.94l14.87,22.21h.28l11.14-21.54h3.4Z"/>
  <path class="cls-1" d="M75.76,151.28l9.31-24.35h2.15l9.31,24.35h-2.53l-4.29-11.41h-7.86l-3.57,11.41h-2.53ZM85.32,128.74l-3.22,10.3h7.3l-3.88-10.3h-.21Z"/>
  <path class="cls-1" d="M98.03,150.31l.2-2.03h.2c.88.77,1.87,1.37,2.97,1.8,1.1.43,2.19.64,3.27.64,1.53,0,2.77-.42,3.71-1.27.94-.85,1.42-1.98,1.42-3.41,0-.79-.17-1.53-.52-2.2-.35-.68-.92-1.37-1.72-2.07-.8-.7-1.9-1.46-3.29-2.27-.97-.56-1.89-1.16-2.77-1.78-.88-.62-1.6-1.34-2.16-2.17-.56-.82-.84-1.81-.84-2.97,0-1.72.62-3.1,1.86-4.15,1.24-1.05,2.87-1.58,4.89-1.58.9,0,1.87.1,2.9.29,1.03.19,1.83.44,2.4.73l-.17,1.9h-.2c-1.28-1.4-2.92-2.1-4.93-2.1-1.44,0-2.6.37-3.48,1.1-.88.73-1.32,1.72-1.32,2.97,0,.93.24,1.72.73,2.39.48.67,1.11,1.27,1.87,1.8.76.53,1.59,1.05,2.46,1.54,1.01.59,2,1.21,2.95,1.86.96.66,1.74,1.44,2.36,2.36.62.92.93,2.06.93,3.44,0,1.27-.29,2.38-.88,3.34-.59.96-1.41,1.71-2.48,2.25-1.07.54-2.31.81-3.73.81-.9,0-1.96-.11-3.17-.34-1.21-.23-2.37-.52-3.47-.88Z"/>
  <g>
    <path class="cls-1" d="M.45,154.25h6.47c3.41,0,6.06.71,7.94,2.13,1.88,1.42,2.82,3.41,2.82,5.96,0,1.98-.59,3.62-1.76,4.93-1.18,1.31-2.87,2.19-5.09,2.63v.29c2.12.42,3.86,1.4,5.21,2.97,1.35,1.56,2.37,3.49,3.04,5.79.61,2.11,1.21,3.74,1.81,4.91.6,1.17,1.26,2,1.98,2.51.72.51,1.58.88,2.58,1.1v.29h-1.98c-1.42,0-2.58-.25-3.5-.77-.92-.51-1.7-1.37-2.34-2.59-.64-1.21-1.26-2.89-1.83-5.03-.93-3.29-2.17-5.62-3.72-6.99-1.54-1.37-3.43-2.06-5.65-2.06h-.29v-.86h.29c5.18,0,7.77-2.36,7.77-7.09s-2.43-6.99-7.29-6.99h-3.19v32.36H.45v-33.51Z"/>
    <path class="cls-1" d="M30.19,187.76v-33.51h3.28v33.51h-3.28Z"/>
    <path class="cls-1" d="M71.7,183.64l-.29,2.92c-.9.38-2,.72-3.28,1.01-1.29.29-2.59.5-3.91.65-1.32.14-2.49.22-3.52.22-2.61,0-5.02-.44-7.24-1.32-2.22-.88-4.16-2.1-5.82-3.66-1.66-1.56-2.95-3.41-3.89-5.53-.93-2.12-1.4-4.43-1.4-6.92s.47-4.79,1.4-6.92c.93-2.12,2.23-3.97,3.89-5.53,1.66-1.56,3.6-2.78,5.82-3.66,2.22-.88,4.63-1.32,7.24-1.32,1.06,0,2.25.08,3.57.24,1.32.16,2.61.38,3.86.65,1.25.27,2.32.58,3.19.93l-.24,2.68h-.29c-1.19-1.08-2.69-1.92-4.49-2.49-1.8-.57-3.67-.86-5.6-.86-2.9,0-5.45.68-7.65,2.03-2.2,1.36-3.93,3.26-5.16,5.7-1.24,2.44-1.86,5.29-1.86,8.55s.62,6.14,1.86,8.57c1.24,2.43,2.95,4.32,5.14,5.67,2.19,1.36,4.75,2.03,7.67,2.03,2.19,0,4.22-.35,6.11-1.05,1.88-.7,3.42-1.56,4.61-2.59h.29Z"/>
    <path class="cls-1" d="M76.72,171c0-2.46.44-4.75,1.33-6.87.88-2.12,2.12-3.97,3.72-5.55,1.59-1.58,3.46-2.81,5.6-3.69,2.14-.88,4.45-1.32,6.93-1.32s4.79.44,6.93,1.32c2.14.88,4.01,2.11,5.6,3.69,1.59,1.58,2.83,3.43,3.72,5.55.88,2.12,1.33,4.41,1.33,6.87s-.44,4.75-1.33,6.87c-.89,2.12-2.12,3.97-3.72,5.55-1.59,1.58-3.46,2.81-5.6,3.69-2.14.88-4.45,1.32-6.93,1.32s-4.79-.44-6.93-1.32c-2.14-.88-4.01-2.11-5.6-3.69s-2.83-3.43-3.72-5.55c-.89-2.12-1.33-4.41-1.33-6.87ZM80.38,171c0,3.26.58,6.1,1.74,8.55,1.16,2.44,2.78,4.34,4.88,5.7,2.09,1.36,4.52,2.03,7.29,2.03s5.2-.68,7.29-2.03c2.09-1.36,3.72-3.26,4.88-5.72,1.16-2.46,1.74-5.3,1.74-8.52s-.58-6.06-1.74-8.5c-1.16-2.44-2.78-4.35-4.88-5.72-2.09-1.37-4.52-2.06-7.29-2.06s-5.19.68-7.26,2.03c-2.08,1.36-3.7,3.26-4.87,5.7-1.18,2.44-1.76,5.29-1.76,8.55Z"/>
  </g>
  <g>
    <path class="cls-1" d="M65.36,93.18c-12.64-35.89-26.46-20.35-39.42-36.78-12.96-16.42,5.2-24.04,5.2-24.04-20.66,7.37-26.12,22.55-26.12,22.55-5.25,17.02,2.84,29.57,2.84,29.57,2.12-6.86,8.85-7,11.65-6.74.23.02.24.35,0,.4-10.74,2.24-8.84,10.66-8.84,10.66,0,0,12.7,20.98,39.39,22.96,23.93,1.78,15.3-18.58,15.3-18.58ZM24.19,89.73c-.16,2.69-7.87-8.95,7.05-8.57-1.24.12-6.91,1.33-7.05,8.57Z"/>
    <path class="cls-1" d="M72.53,2.27s-24.81,6.04-28.05,17.29c0,0,12.57-.71,14.03,7.32,0,0-47.99-6.37-58.19,32.34,0,0-4.8-29.48,22.92-48.59,0,0,19.74-16.55,49.29-8.36Z"/>
    <path class="cls-1" d="M58.95,67.81c2.79,4.27,14.15,22.45,16.26,37.68.18,1.33,1.54,2.17,2.81,1.7,4.08-1.52,12.31-5.33,19.23-13.21,1.06-1.21,1.35-2.91.78-4.41-3.13-8.24-14.25-34.7-27.11-32.15,0,0-9.54,1.2-12.23,8.29-.26.7-.16,1.48.25,2.11Z"/>
    <path class="cls-1" d="M80.24,53.64c3.8,3.29,17.16,15.38,22.12,26.86.72,1.67,3.07,1.78,3.92.17,1.92-3.61,4.36-9.14,4.96-14.79.03-.29,0-.59-.09-.87-.97-3.1-7.41-21.94-20.48-23.31-.33-.03-.66.01-.97.13-1.8.66-8.03,3.33-10.11,9.55-.27.81,0,1.7.64,2.26Z"/>
    <path class="cls-1" d="M105.08,27.91s-5.61-6.3-16.5-6.2c0,0-6.3-6.07-13.86-4.64,0,0,1.26-2.68,7.56-2.32,0,0-2.39-5.53-9.75-7.14,0,0,8.31-.71,13.53,3.21,0,0-1.21-3.33-3.51-4.47,0,0,13.48,6.16,22.53,21.56Z"/>
    <path class="cls-1" d="M111.83,54.7c-1.87-3.5-6.8-11.22-18.2-16.99,0,0-5.33-3.5-5-12.03,0,0,10.99,1.07,18.61,8.62,0,0,5.01,10.03,5.33,20.65.01.43-.53.14-.74-.24Z"/>
  </g>
</svg>